# xmcd
#
# Track frame offsets:
#   150
#   16843
#   29029
#   45848
#   66766
#   76035
#   90285
#   104664
#   119677
#   132565
#   146544
#   167684
#
# Disc length: 2394 seconds
#
# Revision: 0
# Processed by: cddbd v1.5.2PL0 Copyright (c) Steve Scherf et al.
# Submitted via: GXTranscoder 2.0.1939
#
DISCID=9909580c
DTITLE=Wabi Danek - Rosa na kolejich
DYEAR=1900
DGENRE=Country
TTITLE0=Rocnik 47
TTITLE1=Hudsonske Sify
TTITLE2=Divce v mercedesu
TTITLE3=Fotky
TTITLE4=Fram
TTITLE5=Outsider wasltz
TTITLE6=Na ceste
TTITLE7=Pisen co me ucil listopad
TTITLE8=Stromy
TTITLE9=Papirove retezy
TTITLE10=Nevadi
TTITLE11=Rosa na kolejich
EXTD=
EXTT0=
EXTT1=
EXTT2=
EXTT3=
EXTT4=
EXTT5=
EXTT6=
EXTT7=
EXTT8=
EXTT9=
EXTT10=
EXTT11=
PLAYORDER=
